<svg width="451" height="164" viewBox="0 0 451 164" fill="none" xmlns="http://www.w3.org/2000/svg">
<path d="M162.589 107.113C157.528 107.113 153.054 106.119 149.167 104.131C145.28 102.097 142.275 99.2272 140.151 95.5214C138.027 91.8155 136.965 87.4544 136.965 82.438C136.965 77.4215 138.027 73.0604 140.151 69.3546C142.275 65.6035 145.28 62.7338 149.167 60.7453C153.054 58.7116 157.528 57.6947 162.589 57.6947C166.024 57.6947 169.052 58.0563 171.673 58.7794C174.34 59.4573 176.78 60.5419 178.994 62.0333V71.8628C177.006 70.2358 174.724 69.0608 172.148 68.3377C169.617 67.5694 166.725 67.1853 163.471 67.1853C160.443 67.1853 157.708 67.818 155.268 69.0834C152.873 70.3036 150.975 72.0661 149.574 74.371C148.173 76.6758 147.472 79.3648 147.472 82.438C147.472 85.5563 148.105 88.2905 149.37 90.6405C150.681 92.9454 152.511 94.7305 154.861 95.9959C157.211 97.2613 159.923 97.894 162.996 97.894C165.798 97.894 168.238 97.3969 170.317 96.4026V87.251H162.657V79.6586H180.282V102.504C175.808 105.577 169.911 107.113 162.589 107.113Z" fill="white"/>
<path d="M182.662 73.5575H192.559V78.235C193.87 76.6533 195.7 75.4556 198.05 74.6422C200.4 73.7835 203.067 73.3542 206.049 73.3542V81.15C202.931 81.15 200.174 81.6245 197.779 82.5736C195.429 83.5226 193.802 84.9688 192.898 86.9121V106.097H182.662V73.5575Z" fill="white"/>
<path d="M225.721 107.113C219.484 107.113 214.58 105.622 211.01 102.639C207.44 99.6114 205.655 95.3858 205.655 89.9626C205.655 84.5846 207.237 80.3365 210.4 77.2182C213.609 74.0998 218.173 72.5407 224.094 72.5407C227.98 72.5407 231.279 73.2638 233.991 74.7099C236.702 76.1561 238.759 78.1672 240.16 80.7432C241.561 83.274 242.261 86.1438 242.261 89.3525V93.4877H215.417C216.14 97.6455 220.026 99.7243 227.076 99.7243C229.155 99.7243 231.302 99.5436 233.516 99.182C235.731 98.8205 237.652 98.3233 239.279 97.6906V104.876C237.697 105.554 235.663 106.097 233.177 106.503C230.692 106.91 228.206 107.113 225.721 107.113ZM232.567 86.8443C232.432 84.675 231.618 83.0029 230.127 81.8279C228.636 80.6076 226.579 79.9975 223.958 79.9975C221.382 79.9975 219.348 80.6076 217.857 81.8279C216.366 83.0481 215.552 84.7202 215.417 86.8443H232.567Z" fill="white"/>
<path d="M263.243 107.113C257.007 107.113 252.103 105.622 248.533 102.639C244.963 99.6114 243.177 95.3858 243.177 89.9626C243.177 84.5846 244.759 80.3365 247.923 77.2182C251.131 74.0998 255.696 72.5407 261.616 72.5407C265.503 72.5407 268.802 73.2638 271.514 74.7099C274.225 76.1561 276.281 78.1672 277.682 80.7432C279.083 83.274 279.784 86.1438 279.784 89.3525V93.4877H252.939C253.662 97.6455 257.549 99.7243 264.599 99.7243C266.678 99.7243 268.825 99.5436 271.039 99.182C273.253 98.8205 275.174 98.3233 276.801 97.6906V104.876C275.219 105.554 273.186 106.097 270.7 106.503C268.214 106.91 265.729 107.113 263.243 107.113ZM270.09 86.8443C269.954 84.675 269.141 83.0029 267.65 81.8279C266.158 80.6076 264.102 79.9975 261.481 79.9975C258.905 79.9975 256.871 80.6076 255.38 81.8279C253.888 83.0481 253.075 84.7202 252.939 86.8443H270.09Z" fill="white"/>
<path d="M282.056 73.5575H291.953V77.5571C293.445 75.885 295.207 74.6422 297.241 73.8287C299.32 72.97 301.489 72.5407 303.749 72.5407C308.178 72.5407 311.477 73.7383 313.646 76.1335C315.86 78.4836 316.968 81.6697 316.968 85.6919V106.097H306.731V86.8443C306.731 82.6413 304.788 80.5399 300.901 80.5399C299.184 80.5399 297.58 80.9692 296.088 81.8279C294.597 82.6413 293.332 83.8616 292.292 85.4885V106.097H282.056V73.5575Z" fill="white"/>
<path d="M325.999 68.5411C324.418 68.5411 323.085 68.0214 322 66.9819C320.915 65.9425 320.373 64.6319 320.373 63.0501C320.373 61.5136 320.915 60.2256 322 59.1861C323.085 58.1015 324.418 57.5592 325.999 57.5592C327.581 57.5592 328.914 58.1015 329.999 59.1861C331.084 60.2256 331.626 61.5136 331.626 63.0501C331.626 64.6319 331.084 65.9425 329.999 66.9819C328.914 68.0214 327.581 68.5411 325.999 68.5411ZM320.847 73.5575H331.152V106.097H320.847V73.5575Z" fill="white"/>
<path d="M348.609 107.113C346.169 107.113 343.548 106.842 340.746 106.3C337.989 105.803 335.82 105.08 334.238 104.131V96.1315C336.046 97.2161 338.215 98.0974 340.746 98.7753C343.277 99.4532 345.627 99.7921 347.796 99.7921C349.649 99.7921 351.005 99.634 351.863 99.3176C352.722 99.0012 353.151 98.4137 353.151 97.5551C353.151 96.8772 352.903 96.3349 352.406 95.9281C351.909 95.4762 351.14 95.092 350.101 94.7757C349.107 94.4141 347.434 93.8944 345.084 93.2165C342.328 92.4031 340.158 91.5896 338.577 90.7761C337.04 89.9174 335.865 88.8554 335.052 87.59C334.283 86.3246 333.899 84.6976 333.899 82.7091C333.899 79.3196 335.232 76.7888 337.899 75.1167C340.61 73.3993 344.271 72.5407 348.881 72.5407C351.14 72.5407 353.468 72.7892 355.863 73.2864C358.303 73.7383 360.179 74.3484 361.49 75.1167V82.9125C360.179 82.0538 358.462 81.3533 356.337 80.811C354.259 80.2687 352.225 79.9975 350.236 79.9975C348.383 79.9975 346.937 80.1783 345.898 80.5399C344.904 80.9014 344.406 81.5793 344.406 82.5736C344.406 83.4322 344.881 84.0875 345.83 84.5395C346.824 84.9914 348.655 85.5563 351.321 86.2342L352.677 86.5731C355.524 87.3414 357.738 88.2001 359.32 89.1492C360.902 90.053 362.009 91.1602 362.642 92.4708C363.32 93.7362 363.659 95.3406 363.659 97.2839C363.659 100.267 362.371 102.662 359.795 104.47C357.219 106.232 353.49 107.113 348.609 107.113Z" fill="white"/>
<path d="M366.025 56H376.261V77.286C377.798 75.7042 379.538 74.5292 381.481 73.7609C383.424 72.9474 385.503 72.5407 387.718 72.5407C392.147 72.5407 395.446 73.7383 397.615 76.1335C399.829 78.4836 400.937 81.6697 400.937 85.6919V106.097H390.701V86.8443C390.701 82.6413 388.757 80.5399 384.871 80.5399C383.153 80.5399 381.549 80.9692 380.058 81.8279C378.566 82.6413 377.301 83.8616 376.261 85.4885V106.097H366.025V56Z" fill="white"/>
<path fill-rule="evenodd" clip-rule="evenodd" d="M102.006 65.5916C102.006 74.2026 95.0259 81.1832 86.4149 81.1832C77.8038 81.1832 70.8232 74.2026 70.8232 65.5916C70.8232 56.9806 77.8038 50 86.4149 50C95.0259 50 102.006 56.9806 102.006 65.5916ZM50.1475 80.0501C67.1342 78.9051 81.9386 91.623 83.3176 108.646C83.4605 110.41 83.4536 112.151 83.3077 113.858C66.321 115.003 51.5166 102.285 50.1376 85.2622C49.9948 83.4983 50.0016 81.7567 50.1475 80.0501ZM94.2984 113.262C111.321 111.883 124.039 97.0785 122.894 80.0918C121.187 79.9459 119.446 79.9391 117.682 80.082C100.659 81.4609 87.9413 96.2653 89.0863 113.252C90.7929 113.398 92.5344 113.405 94.2984 113.262Z" fill="#196D3A"/>
</svg>
