<svg width="492" height="191" viewBox="0 0 492 191" fill="none" xmlns="http://www.w3.org/2000/svg">
<path d="M166.503 74C170.222 74 173.441 74.6198 176.16 75.8593C178.919 77.0989 181.038 78.8582 182.517 81.1374C183.997 83.4165 184.737 86.1155 184.737 89.2344C184.737 92.3132 183.997 95.0123 182.517 97.3314C181.038 99.6106 178.919 101.37 176.16 102.609C173.441 103.809 170.222 104.409 166.503 104.409H158.046V115.985H148.33V74H166.503ZM165.964 96.4917C168.882 96.4917 171.102 95.8719 172.621 94.6324C174.141 93.3529 174.9 91.5535 174.9 89.2344C174.9 86.8753 174.141 85.0759 172.621 83.8364C171.102 82.5568 168.882 81.9171 165.964 81.9171H158.046V96.4917H165.964Z" fill="white"/>
<path d="M196.952 87.9748C198.071 86.4154 199.571 85.2359 201.45 84.4362C203.369 83.6364 205.568 83.2366 208.047 83.2366V91.8734C207.008 91.7934 206.308 91.7535 205.948 91.7535C203.269 91.7535 201.17 92.5132 199.651 94.0326C198.131 95.5121 197.371 97.7512 197.371 100.75V115.985H188.015V83.7164H196.952V87.9748Z" fill="white"/>
<path d="M225.673 116.464C222.275 116.464 219.216 115.765 216.497 114.365C213.818 112.926 211.719 110.946 210.199 108.427C208.68 105.908 207.92 103.049 207.92 99.8505C207.92 96.6516 208.68 93.7927 210.199 91.2736C211.719 88.7546 213.818 86.7953 216.497 85.3958C219.216 83.9563 222.275 83.2366 225.673 83.2366C229.072 83.2366 232.111 83.9563 234.79 85.3958C237.469 86.7953 239.568 88.7546 241.088 91.2736C242.607 93.7927 243.367 96.6516 243.367 99.8505C243.367 103.049 242.607 105.908 241.088 108.427C239.568 110.946 237.469 112.926 234.79 114.365C232.111 115.765 229.072 116.464 225.673 116.464ZM225.673 108.787C228.073 108.787 230.032 107.987 231.551 106.388C233.111 104.749 233.89 102.569 233.89 99.8505C233.89 97.1315 233.111 94.9723 231.551 93.3729C230.032 91.7335 228.073 90.9138 225.673 90.9138C223.274 90.9138 221.295 91.7335 219.736 93.3729C218.176 94.9723 217.396 97.1315 217.396 99.8505C217.396 102.569 218.176 104.749 219.736 106.388C221.295 107.987 223.274 108.787 225.673 108.787Z" fill="white"/>
<path d="M285.788 74V115.985H277.811L256.878 90.4939V115.985H247.282V74H255.319L276.191 99.4906V74H285.788Z" fill="white"/>
<path d="M305.078 83.2366C310.076 83.2366 313.914 84.4362 316.593 86.8353C319.272 89.1944 320.612 92.7731 320.612 97.5713V115.985H311.855V111.966C310.096 114.965 306.817 116.464 302.019 116.464C299.54 116.464 297.38 116.044 295.541 115.205C293.742 114.365 292.362 113.206 291.403 111.726C290.443 110.247 289.963 108.567 289.963 106.688C289.963 103.689 291.083 101.33 293.322 99.6106C295.601 97.8912 299.1 97.0315 303.818 97.0315H311.255C311.255 94.9923 310.636 93.4328 309.396 92.3532C308.156 91.2336 306.297 90.6739 303.818 90.6739C302.099 90.6739 300.399 90.9538 298.72 91.5135C297.081 92.0334 295.681 92.7531 294.521 93.6727L291.163 87.1352C292.922 85.8956 295.021 84.936 297.46 84.2562C299.939 83.5765 302.479 83.2366 305.078 83.2366ZM304.358 110.167C305.957 110.167 307.377 109.807 308.616 109.087C309.856 108.327 310.735 107.228 311.255 105.788V102.489H304.838C300.999 102.489 299.08 103.749 299.08 106.268C299.08 107.468 299.54 108.427 300.459 109.147C301.419 109.827 302.718 110.167 304.358 110.167Z" fill="white"/>
<path d="M346.893 114.425C345.974 115.105 344.834 115.625 343.475 115.985C342.155 116.304 340.756 116.464 339.276 116.464C335.438 116.464 332.459 115.485 330.34 113.525C328.26 111.566 327.221 108.687 327.221 104.889V91.6335H322.243V84.4362H327.221V76.5791H336.577V84.4362H344.614V91.6335H336.577V104.769C336.577 106.128 336.917 107.188 337.597 107.947C338.317 108.667 339.316 109.027 340.596 109.027C342.075 109.027 343.335 108.627 344.374 107.828L346.893 114.425Z" fill="white"/>
<path d="M381.655 83.7164V115.985H372.778V112.146C371.539 113.545 370.059 114.625 368.34 115.385C366.62 116.104 364.761 116.464 362.762 116.464C358.523 116.464 355.165 115.245 352.685 112.806C350.206 110.367 348.967 106.748 348.967 101.95V83.7164H358.323V100.57C358.323 105.768 360.503 108.367 364.861 108.367C367.1 108.367 368.9 107.648 370.259 106.208C371.618 104.729 372.298 102.549 372.298 99.6705V83.7164H381.655Z" fill="white"/>
<path d="M396.261 87.9748C397.38 86.4154 398.88 85.2359 400.759 84.4362C402.678 83.6364 404.878 83.2366 407.357 83.2366V91.8734C406.317 91.7934 405.617 91.7535 405.258 91.7535C402.578 91.7535 400.479 92.5132 398.96 94.0326C397.44 95.5121 396.681 97.7512 396.681 100.75V115.985H387.324V83.7164H396.261V87.9748Z" fill="white"/>
<path d="M441.237 99.9704C441.237 100.09 441.177 100.93 441.057 102.489H416.646C417.086 104.489 418.125 106.068 419.765 107.228C421.404 108.387 423.443 108.967 425.882 108.967C427.562 108.967 429.041 108.727 430.321 108.247C431.64 107.728 432.86 106.928 433.979 105.848L438.958 111.246C435.919 114.725 431.48 116.464 425.642 116.464C422.004 116.464 418.785 115.765 415.986 114.365C413.187 112.926 411.028 110.946 409.508 108.427C407.989 105.908 407.229 103.049 407.229 99.8505C407.229 96.6916 407.969 93.8527 409.448 91.3336C410.968 88.7746 413.027 86.7953 415.626 85.3958C418.265 83.9563 421.204 83.2366 424.443 83.2366C427.602 83.2366 430.461 83.9163 433.02 85.2758C435.579 86.6353 437.578 88.5946 439.018 91.1537C440.497 93.6727 441.237 96.6117 441.237 99.9704ZM424.503 90.314C422.384 90.314 420.604 90.9138 419.165 92.1133C417.725 93.3129 416.846 94.9523 416.526 97.0315H432.42C432.1 94.9923 431.22 93.3729 429.781 92.1733C428.341 90.9338 426.582 90.314 424.503 90.314Z" fill="white"/>
<path fill-rule="evenodd" clip-rule="evenodd" d="M95.045 50.6185C93.6194 49.7938 91.8617 49.7938 90.4361 50.6185C80.3102 56.476 73.4807 67.4355 73.4807 79.9956C73.4807 81.7857 73.6195 83.5433 73.8867 85.2583C66.9161 82.891 59.3686 83.7525 53.2039 87.3048C51.7769 88.127 50.898 89.6492 50.8994 91.2961C50.9067 99.9848 55.4203 108.453 63.5039 113.12C67.4696 115.41 71.7981 116.498 76.0677 116.5C75.4181 118.34 75.0647 120.321 75.0647 122.384C75.0647 132.146 82.9782 140.059 92.7399 140.059C102.502 140.059 110.415 132.146 110.415 122.384C110.415 120.316 110.06 118.332 109.408 116.488C113.423 116.361 117.467 115.271 121.191 113.12C129.275 108.453 133.788 99.9851 133.795 91.2965C133.797 89.6496 132.918 88.1274 131.491 87.3051C125.569 83.8928 118.371 82.9634 111.635 84.9939C111.876 83.3628 112 81.6938 112 79.9956C112 67.4355 105.171 56.476 95.045 50.6185ZM82.6851 79.9956C82.6851 71.8394 86.6343 64.6013 92.7405 60.0959C98.8468 64.6013 102.796 71.8394 102.796 79.9956C102.796 88.1517 98.8468 95.3898 92.7405 99.8952C86.6343 95.3898 82.6851 88.1517 82.6851 79.9956ZM110.891 95.2803C115.141 92.8265 120.052 92.541 124.342 94.0937C123.542 98.5852 120.839 102.695 116.589 105.149C112.339 107.603 107.428 107.888 103.138 106.336C103.938 101.844 106.641 97.7341 110.891 95.2803ZM60.3531 94.0933C64.6429 92.5406 69.5537 92.8261 73.8038 95.2799C78.054 97.7337 80.7566 101.844 81.5569 106.335C77.267 107.888 72.3562 107.603 68.1061 105.149C63.856 102.695 61.1533 98.5848 60.3531 94.0933ZM84.2691 122.384C84.2691 117.706 88.0616 113.913 92.7399 113.913C97.4182 113.913 101.211 117.706 101.211 122.384C101.211 127.062 97.4182 130.855 92.7399 130.855C88.0616 130.855 84.2691 127.062 84.2691 122.384Z" fill="#22B24B"/>
</svg>
