<svg width="140" height="38" viewBox="0 0 140 38" fill="none" xmlns="http://www.w3.org/2000/svg">
<g clip-path="url(#clip0_205_7)">
<path d="M54.728 16.52C54.3987 15.9133 53.922 15.454 53.298 15.142C52.6913 14.8127 51.972 14.648 51.14 14.648C49.7013 14.648 48.5487 15.1247 47.682 16.078C46.8153 17.014 46.382 18.2707 46.382 19.848C46.382 21.5293 46.8327 22.8467 47.734 23.8C48.6527 24.736 49.9093 25.204 51.504 25.204C52.596 25.204 53.5147 24.9267 54.26 24.372C55.0227 23.8173 55.5773 23.02 55.924 21.98H50.282V18.704H59.954V22.838C59.6247 23.9473 59.0613 24.9787 58.264 25.932C57.484 26.8853 56.4873 27.6567 55.274 28.246C54.0607 28.8353 52.6913 29.13 51.166 29.13C49.3633 29.13 47.7513 28.74 46.33 27.96C44.926 27.1627 43.8253 26.062 43.028 24.658C42.248 23.254 41.858 21.6507 41.858 19.848C41.858 18.0453 42.248 16.442 43.028 15.038C43.8253 13.6167 44.926 12.516 46.33 11.736C47.734 10.9387 49.3373 10.54 51.14 10.54C53.324 10.54 55.1613 11.0687 56.652 12.126C58.16 13.1833 59.1567 14.648 59.642 16.52H54.728ZM66.8627 16.91C67.3827 16.1127 68.0327 15.4887 68.8127 15.038C69.5927 14.57 70.4594 14.336 71.4127 14.336V19.042H70.1907C69.0814 19.042 68.2494 19.2847 67.6947 19.77C67.14 20.238 66.8627 21.07 66.8627 22.266V29H62.4167V14.492H66.8627V16.91ZM80.1418 29.208C78.7204 29.208 77.4378 28.9047 76.2938 28.298C75.1671 27.6913 74.2744 26.8247 73.6158 25.698C72.9744 24.5713 72.6538 23.254 72.6538 21.746C72.6538 20.2553 72.9831 18.9467 73.6418 17.82C74.3004 16.676 75.2018 15.8007 76.3458 15.194C77.4898 14.5873 78.7724 14.284 80.1938 14.284C81.6151 14.284 82.8978 14.5873 84.0418 15.194C85.1858 15.8007 86.0871 16.676 86.7458 17.82C87.4044 18.9467 87.7338 20.2553 87.7338 21.746C87.7338 23.2367 87.3958 24.554 86.7198 25.698C86.0611 26.8247 85.1511 27.6913 83.9898 28.298C82.8458 28.9047 81.5631 29.208 80.1418 29.208ZM80.1418 25.36C80.9911 25.36 81.7104 25.048 82.2998 24.424C82.9064 23.8 83.2098 22.9073 83.2098 21.746C83.2098 20.5847 82.9151 19.692 82.3258 19.068C81.7538 18.444 81.0431 18.132 80.1938 18.132C79.3271 18.132 78.6078 18.444 78.0358 19.068C77.4638 19.6747 77.1778 20.5673 77.1778 21.746C77.1778 22.9073 77.4551 23.8 78.0098 24.424C78.5818 25.048 79.2924 25.36 80.1418 25.36ZM110.918 14.492L106.992 29H102.078L99.7905 19.588L97.4245 29H92.5365L88.5845 14.492H93.0305L95.0845 24.866L97.5285 14.492H102.234L104.704 24.814L106.732 14.492H110.918ZM119.894 18.184H117.502V29H113.056V18.184H111.444V14.492H113.056V14.076C113.056 12.2907 113.567 10.9387 114.59 10.02C115.613 9.084 117.112 8.616 119.088 8.616C119.417 8.616 119.66 8.62467 119.816 8.642V12.412C118.967 12.36 118.369 12.4813 118.022 12.776C117.675 13.0707 117.502 13.5993 117.502 14.362V14.492H119.894V18.184ZM136.803 14.492L127.703 35.89H122.919L126.247 28.506L120.345 14.492H125.311L128.665 23.566L131.993 14.492H136.803Z" fill="white"/>
<path d="M22 12C22 8.13399 25.134 5 29 5H36V12C36 15.866 32.866 19 29 19C25.134 19 22 15.866 22 12Z" fill="#FF6D35"/>
<path d="M28.9999 35.7943C25.1339 35.7943 21.9999 32.6603 21.9999 28.7943V21.7943H28.9999C32.8659 21.7943 35.9999 24.9283 35.9999 28.7943C35.9999 32.6603 32.8659 35.7943 28.9999 35.7943Z" fill="#5CC97B"/>
<path d="M19.7943 19.6196C19.7943 11.8512 13.974 5.55377 6.79431 5.55377L6.79431 28.5209C6.79431 32.405 9.70445 35.5538 13.2944 35.5538C16.8842 35.5538 19.7943 32.405 19.7943 28.5209L19.7943 19.6196Z" fill="#3D96F4"/>
</g>
<defs>
<clipPath id="clip0_205_7">
<rect width="140" height="38" fill="white"/>
</clipPath>
</defs>
</svg>
